
<svg width="17px" height="19px" viewBox="0 0 17 19" version="1.1" xmlns="http://www.w3.org/2000/svg" xmlns:xlink="http://www.w3.org/1999/xlink">
    <!-- Generator: Sketch 44.1 (41455) - http://www.bohemiancoding.com/sketch -->
    <desc>Created with Sketch.</desc>
    <defs></defs>
    <g id="Page-1" stroke="none" stroke-width="1" fill="none" fill-rule="evenodd">
        <g id="Artboard" transform="translate(-473.000000, -21.000000)" stroke="#4E4E4E">
            <g id="Header">
                <g id="element-searchBox" transform="translate(79.000000, 8.000000)">
                    <g id="icon-guests" transform="translate(394.000000, 14.000000)">
                        <path d="M8.3,7.5 C8.3,7.5 6.3,6.9 7.3,5.8 C8.3,4.7 8.9,3.3 8.5,1.8 C8.1,0.3 7,0 6.3,0 C5.3,0 3,0.2 3.2,3.4 C3.2,3.4 3.4,4.9 4.2,6 C4.4,6.3 4.4,6.7 4.2,7 C3.5,7.7 2.2,9 1.9,9.3 C0.9,10.3 0.9,12.8 1.1,14.8 C1.1,14.8 1.1,16.4 2.8,16.5 C4.4,16.6 6.4,16.6 7.6,16.5 C8.2,16.5 9.4,16.5 9.2,13.7 C9,10.9 9.2,10.6 9.2,10.6 C9.2,10.6 9.2,9.2 11.1,8.3 C11.4,8.2 11.5,7.8 11.4,7.5 C10.7,6.3 9.3,3.4 11.8,2.6 C13.8,1.9 14.8,3.9 14.9,5.2 C14.9,5.5 14.8,6 14.6,6.3 C14.2,6.8 13.6,7.8 13.6,8 C13.5,8.5 14.4,9.1 15.2,9.5 C15.8,9.8 16.2,10.3 16.3,10.9 C16.5,11.9 16.4,13.3 16.4,14.7 C16.4,15.3 16.6,16 15.1,16.7 L10.7,16.8" id="Shape"></path>
                    </g>
                </g>
            </g>
        </g>
    </g>
</svg>