
<svg width="30px" height="31px" viewBox="0 0 30 31" version="1.1" xmlns="http://www.w3.org/2000/svg" xmlns:xlink="http://www.w3.org/1999/xlink">
    <!-- Generator: Sketch 44.1 (41455) - http://www.bohemiancoding.com/sketch -->
    <desc>Created with Sketch.</desc>
    <defs></defs>
    <g id="Page-1" stroke="none" stroke-width="1" fill="none" fill-rule="evenodd">
        <g id="Artboard" transform="translate(-28.000000, -15.000000)" fill-rule="nonzero" fill="#FF5A5F">
            <g id="Header">
                <path d="M57.5756567,36.4186906 C57.4142128,36.056755 57.2524461,35.6646833 57.0910022,35.3325825 C56.8320463,34.7898298 56.5734133,34.2766106 56.3477148,33.7941303 L56.315426,33.7639941 C54.0849178,29.2387446 51.6936115,24.6538254 49.1721815,20.1291786 L49.0753152,19.9477588 C48.8101181,19.4783787 48.5516771,19.0057004 48.3000619,18.5298513 C47.9765284,17.9864959 47.6536407,17.4139084 47.1363746,16.870553 C46.1021653,15.6639002 44.6152675,15 43.0318263,15 C41.4154505,15 39.9611643,15.6639002 38.8949891,16.8099793 C38.4100118,17.3527319 38.0541896,17.9259222 37.7313019,18.4692776 C37.4790495,18.9448279 37.2206127,19.4174987 36.9560485,19.8871851 L36.8588593,20.0686049 C34.370041,24.5932517 31.9461231,29.1784722 29.7159378,33.7034204 L29.6833261,33.7633914 C29.4573047,34.2467758 29.1983488,34.7593923 28.9397158,35.3018436 C28.7782719,35.6339443 28.6168281,35.9958799 28.4553842,36.3879517 C28.0349844,37.5038946 27.9055065,38.5598665 28.0675961,39.646276 C28.4230954,41.9089007 30.0388255,43.8086858 32.2693337,44.6540058 C33.1098103,44.9861066 33.9825758,45.1367875 34.8873071,45.1367875 C35.1459401,45.1367875 35.4688278,45.1066513 35.7277837,45.0762138 C36.7946047,44.955669 37.8933915,44.624171 38.9602124,44.0509808 C40.2853435,43.3569444 41.5458971,42.3618476 42.9678945,40.9138039 C44.3898919,42.3618476 45.6827342,43.3569444 46.9755766,44.0509808 C48.0427204,44.624171 49.1411843,44.955669 50.2076824,45.0762138 C50.4663154,45.1069527 50.7898489,45.1367875 51.0484819,45.1367875 C51.9535361,45.1367875 52.8582675,44.9861066 53.6661325,44.6540058 C55.9289294,43.8086858 57.5123707,41.8787646 57.8681929,39.646276 C58.1248886,38.5906054 57.9957336,37.5352362 57.5756567,36.4186906 L57.5756567,36.4186906 Z M42.9992146,37.987279 C41.2536837,35.9359089 40.1222853,34.0053849 39.73482,32.3768255 C39.5733762,31.6827892 39.5407645,31.0794627 39.6379537,30.5364087 C39.7022084,30.053627 39.8965868,29.6311177 40.1552198,29.2691821 C40.7693522,28.4552038 41.8035615,27.9419845 42.9995375,27.9419845 C44.1958364,27.9419845 45.2623345,28.4247662 45.8441781,29.2691821 C46.1028111,29.6311177 46.2965437,30.0539284 46.3617671,30.5364087 C46.4583105,31.0797641 46.4260217,31.7129253 46.2645779,32.3768255 C45.8754982,33.9752487 44.7440997,35.9060741 42.9992146,37.987279 Z M55.8947033,39.4051865 C55.6686819,40.9737749 54.5372835,42.3317114 52.9538422,42.9350378 C52.178266,43.2363997 51.3374664,43.3271096 50.4976355,43.2363997 C49.6897705,43.1456898 48.8812597,42.9042989 48.0414288,42.4522561 C46.8777416,41.848327 45.7143772,40.9138039 44.3566345,39.5257312 C46.4896306,37.0825907 47.7824729,34.8498008 48.2674502,32.8593058 C48.4937945,31.9238786 48.5264062,31.0794627 48.4288941,30.2947165 C48.3000619,29.5407091 48.0088172,28.8466728 47.5564515,28.2433464 C46.5538852,26.8854099 44.8729319,26.1015677 42.9988917,26.1015677 C41.1248515,26.1015677 39.4438982,26.9161488 38.4419777,28.2433464 C37.989612,28.8466728 37.6983673,29.5407091 37.5692123,30.2947165 C37.4400572,31.0794627 37.4720231,31.9540148 37.7306561,32.8593058 C38.2153105,34.8498008 39.5404416,37.1124256 41.641149,39.5558674 C40.3160179,40.9436387 39.1200419,41.8790659 37.9563546,42.4823923 C37.1158779,42.9350378 36.3083358,43.1764287 35.5004708,43.2665359 C34.6280283,43.3572458 33.7872287,43.2363997 33.0439412,42.965174 C31.4605,42.3618476 30.3291015,41.0039111 30.1030801,39.4353227 C30.0062138,38.6813153 30.0704685,37.927308 30.3940019,37.0825907 C30.4905453,36.7806262 30.652635,36.4792643 30.8140788,36.1173288 C31.0404231,35.6345471 31.2984104,35.1213278 31.5573663,34.6087113 L31.5899779,34.5487403 C33.8198404,30.053627 36.2114695,25.4684065 38.7002879,21.0040321 L38.7971542,20.8226123 C39.0561101,20.3705695 39.3147431,19.8877878 39.5730533,19.4351423 C39.8316863,18.9523606 40.1222853,18.4997151 40.4781075,18.107342 C41.1568174,17.3840736 42.0615487,16.9913991 43.0637921,16.9913991 C44.0660356,16.9913991 44.9707669,17.3840736 45.6494768,18.107342 C46.005299,18.5006192 46.295898,18.9532647 46.554531,19.4351423 C46.8134869,19.8877878 47.07212,20.3705695 47.3301072,20.8226123 L47.4272964,21.0040321 C49.8781632,25.4869558 52.2380327,30.0127121 54.5056405,34.5788765 L54.5056405,34.6090127 C54.7645964,35.0923971 54.9906178,35.6348484 55.2492508,36.1182328 C55.4106947,36.4795657 55.5724614,36.7809275 55.6693277,37.0828921 C55.927315,37.8664329 56.0241813,38.621043 55.8947033,39.4051865 L55.8947033,39.4051865 Z" id="Shape"></path>
            </g>
        </g>
    </g>
</svg>