
<svg width="20px" height="20px" viewBox="0 0 20 20" version="1.1" xmlns="http://www.w3.org/2000/svg" xmlns:xlink="http://www.w3.org/1999/xlink">
    <!-- Generator: Sketch 44.1 (41455) - http://www.bohemiancoding.com/sketch -->
    <desc>Created with Sketch.</desc>
    <defs></defs>
    <g id="Page-1" stroke="none" stroke-width="1" fill="none" fill-rule="evenodd">
        <g id="Artboard" transform="translate(-325.000000, -2316.000000)" fill-rule="nonzero" fill="#767676">
            <g id="Footer" transform="translate(0.000000, 2004.000000)">
                <path d="M344.717104,326.214316 C344.609475,325.974121 344.501631,325.713926 344.394001,325.49353 C344.221364,325.133337 344.048942,324.792744 343.898477,324.472551 L343.876951,324.452551 C342.389945,321.449411 340.795741,318.406672 339.114788,315.403932 L339.05021,315.283534 C338.873412,314.972035 338.701118,314.658346 338.533375,314.342553 C338.317686,313.98196 338.102427,313.601968 337.757583,313.241375 C337.06811,312.440591 336.076845,312 335.021218,312 C333.943634,312 332.97411,312.440591 332.263326,313.201176 C331.940008,313.561369 331.702793,313.941761 331.487535,314.302354 C331.319366,314.617949 331.147075,314.931632 330.970699,315.243335 L330.905906,315.363733 C329.246694,318.366473 327.630749,321.409412 326.143959,324.412352 L326.122217,324.452151 C325.971536,324.772945 325.798899,325.113138 325.626477,325.473131 C325.518848,325.693526 325.411219,325.933721 325.303589,326.193916 C325.023323,326.934501 324.937004,327.635287 325.045064,328.356273 C325.282064,329.857843 326.359217,331.118618 327.846222,331.679606 C328.40654,331.900002 328.988384,332 329.591538,332 C329.76396,332 329.979219,331.98 330.151856,331.959801 C330.86307,331.879802 331.595594,331.659807 332.306808,331.279414 C333.190229,330.818824 334.030598,330.158437 334.978596,329.197456 C335.926595,330.158437 336.788489,330.818824 337.650384,331.279414 C338.361814,331.659807 339.094123,331.879802 339.805122,331.959801 C339.977544,331.9802 340.193233,332 340.365655,332 C340.969024,332 341.572178,331.900002 342.110755,331.679606 C343.619286,331.118618 344.674914,329.837843 344.912129,328.356273 C345.083259,327.655687 344.997156,326.955301 344.717104,326.214316 L344.717104,326.214316 Z M334.999476,327.255295 C333.835789,325.893922 333.081524,324.612748 332.823213,323.531969 C332.715584,323.071379 332.693843,322.670987 332.758636,322.310594 C332.801472,321.9902 332.931058,321.709806 333.10348,321.469611 C333.512901,320.929421 334.202374,320.588828 334.999692,320.588828 C335.797224,320.588828 336.508223,320.909222 336.896119,321.469611 C337.068541,321.709806 337.197696,321.9904 337.241178,322.310594 C337.30554,322.671187 337.284014,323.091378 337.176385,323.531969 C336.916999,324.592748 336.162733,325.874123 334.999476,327.255295 Z M343.596469,328.196276 C343.445788,329.237255 342.691522,330.138437 341.635895,330.538829 C341.118844,330.738825 340.558311,330.799024 339.998424,330.738825 C339.459847,330.678626 338.92084,330.51843 338.360953,330.218436 C337.585161,329.817644 336.809585,329.197456 335.904423,328.276274 C337.32642,326.654907 338.188315,325.173137 338.511633,323.852163 C338.66253,323.231375 338.684271,322.670987 338.619263,322.150197 C338.533375,321.649807 338.339211,321.189216 338.037634,320.788824 C337.369257,319.887642 336.248621,319.367453 334.999261,319.367453 C333.749901,319.367453 332.629265,319.908042 331.961318,320.788824 C331.659741,321.189216 331.465578,321.649807 331.379475,322.150197 C331.293371,322.670987 331.314682,323.251375 331.487104,323.852163 C331.810207,325.173137 332.693628,326.674707 334.094099,328.296274 C333.210679,329.217256 332.413361,329.838043 331.63757,330.238435 C331.077252,330.538829 330.538891,330.699026 330.000314,330.758825 C329.418686,330.819024 328.858152,330.738825 328.362627,330.558829 C327.307,330.158437 326.552734,329.257255 326.402053,328.216276 C326.337476,327.715886 326.380312,327.215496 326.596001,326.654907 C326.660364,326.454511 326.768423,326.254515 326.876053,326.01432 C327.026949,325.693926 327.19894,325.353333 327.371578,325.01314 L327.393319,324.973341 C328.879894,321.9902 330.474313,318.947261 332.133525,315.98452 L332.198103,315.864123 C332.37074,315.564129 332.543162,315.243735 332.715369,314.943341 C332.887791,314.622948 333.081524,314.322554 333.318738,314.062159 C333.771212,313.582168 334.374366,313.321574 335.042528,313.321574 C335.71069,313.321574 336.313845,313.582168 336.766318,314.062159 C337.003533,314.323154 337.197265,314.623548 337.369687,314.943341 C337.542325,315.243735 337.714747,315.564129 337.886738,315.864123 L337.951531,315.98452 C339.585442,318.959571 341.158688,321.963047 342.670427,324.99334 L342.670427,325.01334 C342.843064,325.334133 342.993745,325.694126 343.166167,326.01492 C343.273796,326.254715 343.381641,326.454711 343.446218,326.655107 C343.61821,327.175096 343.682788,327.675886 343.596469,328.196276 L343.596469,328.196276 Z" id="Shape-Copy-47"></path>
            </g>
        </g>
    </g>
</svg>